# xmcd
#
# Track frame offsets:
#	150
#	15240
#	29494
#	43005
#	54094
#	64690
#	75720
#	92305
#	105006
#	121582
#	133437
#	143130
#
# Disc length: 2050 seconds
#
# Revision: 7
# Processed by: cddbd v1.5.2PL0 Copyright (c) Steve Scherf et al.
# Submitted via: EZCDAudioConverter 8.0.2.1
#
DISCID=8808000c
DTITLE=JOÃO PAULO and DANIEL - VOL.01 - AMOR SEMPRE AMOR [CD 398420848-2) CHANTE
DTITLE=CLER
DYEAR=1985
DGENRE=SERTANEJO
TTITLE0=BRINCAR DE ESCONDER (GUARÂNIA) (BY GILMAR SINISTRO) 
TTITLE1=CAMINHONEIRO DO AMOR (JOVEM) (BY GILMAR SINISTRO) 
TTITLE2=AMOR SEMPRE AMOR (CANÇÃO RANCHEIRA) (BY GILMAR SINISTRO) 
TTITLE3=NINGUÉM PRENDE NINGUÉM (JOVEM) (BY GILMAR SINISTRO) 
TTITLE4=MINHOCA  NA CABEÇA (JOVEM) (BY GILMAR SINISTRO) 
TTITLE5=AMANTE MENINA (CANÇÃO RANCHEIRA) (BY GILMAR SINISTRO) 
TTITLE6=HOMEM E MULHER (CANÇÃO RANCHEIRA) (BY GILMAR SINISTRO) 
TTITLE7=NOSSA MÚSICA (JOVEM) (BY GILMAR SINISTRO) 
TTITLE8=SIRIEMA DO SERRADO (BALADA) (BY GILMAR SINISTRO) 
TTITLE9=O MAL DO AMOR (BICHINHO) (CANÇÃO RANCHEIRA) (BY GILMAR SINISTRO) 
TTITLE10=NOITE DOS NAMORADOS (RASQUEADO) (BY GILMAR SINISTRO) 
TTITLE11=SAUDADE E TORMENTO (GUARÃNIA) (BY GILMAR SINISTRO) 
EXTD=
EXTT0=
EXTT1=
EXTT2=
EXTT3=
EXTT4=
EXTT5=
EXTT6=
EXTT7=
EXTT8=
EXTT9=
EXTT10=
EXTT11=
PLAYORDER=
